<svg xmlns="http://www.w3.org/2000/svg" viewBox="0 0 598.6 33.77"><g id="Layer_2" data-name="Layer 2"><g id="Layer_1-2" data-name="Layer 1"><path d="M28.9,24.76c-.1,0-.2,0-.2.1-1.6,5.4-5.1,8.2-10.6,8.2a13.89,13.89,0,0,1-7.4-2.2A16.55,16.55,0,0,1,5.2,25a16.87,16.87,0,0,1-2-7.9,16.55,16.55,0,0,1,1.8-8,13.32,13.32,0,0,1,5.2-5.3A15,15,0,0,1,18,1.86,10.3,10.3,0,0,1,24.7,4a11.5,11.5,0,0,1,3.6,6.2l.4.2.2-.2-.6-5.7c0-.5,0-.7-.1-.8a1.38,1.38,0,0,0-.4-.3,16.93,16.93,0,0,0-4.4-1.7,26.48,26.48,0,0,0-5.4-.5,21.19,21.19,0,0,0-9.3,2,15.22,15.22,0,0,0-6.4,5.6A15.38,15.38,0,0,0,0,17.06a16.6,16.6,0,0,0,2.3,8.7,16,16,0,0,0,6.4,5.9,20,20,0,0,0,9.3,2.1,21.3,21.3,0,0,0,5.4-.6,17.93,17.93,0,0,0,4.9-1.9c.2-.1.4-.2.4-.3a1.33,1.33,0,0,0,.2-.8l.4-5.3C29.3,24.76,29.2,24.76,28.9,24.76Z"/><path d="M60.5,3.36a15.5,15.5,0,0,0-8.4-2.2,19.11,19.11,0,0,0-8.3,1.9,15.06,15.06,0,0,0-6.7,5.5,14.62,14.62,0,0,0-2.6,8.9,17.42,17.42,0,0,0,1.9,8.1,14.71,14.71,0,0,0,5.7,5.9,15.17,15.17,0,0,0,8.3,2.2,17.64,17.64,0,0,0,8.7-2.2,18.61,18.61,0,0,0,6.5-6,15.71,15.71,0,0,0,2.4-8.4,16.75,16.75,0,0,0-2-7.8A15.52,15.52,0,0,0,60.5,3.36Zm2.6,22.8A11.57,11.57,0,0,1,58.6,31a12.82,12.82,0,0,1-6.4,1.7,13.35,13.35,0,0,1-7.6-2.3,14.62,14.62,0,0,1-5.1-6.1,20.24,20.24,0,0,1-1.8-8.6c0-4.1,1.1-7.4,3.2-9.8s5.2-3.6,9.1-3.6a14.65,14.65,0,0,1,7.8,2.1,12.86,12.86,0,0,1,5.1,5.7,19.19,19.19,0,0,1,1.8,8.4A16.63,16.63,0,0,1,63.1,26.16Z"/><path d="M105.5,1.76H96.7a.41.41,0,0,0-.1.3.41.41,0,0,0,.1.3,3.58,3.58,0,0,1,3,1,6.37,6.37,0,0,1,.8,3.6V29L80.6,4.36l-1.2-1.7c-.2-.4-.3-.7-.5-.8H72.7c-.1,0-.1.1-.1.3s0,.3.1.3A5.26,5.26,0,0,1,76.3,4V28c0,1.7-.2,2.9-.8,3.6a3.52,3.52,0,0,1-2.9,1c-1.4,0-.1.1-.1.3s0,.3.1.3h8.6c.1,0,.2-.1.2-.3s-.1-.3-.2-.3a3.5,3.5,0,0,1-2.9-1,5.58,5.58,0,0,1-.9-3.6V4.86l.9,1L101,33.76h.6V7a6.45,6.45,0,0,1,.8-3.6,3.88,3.88,0,0,1,3.1-1c.1,0,.1-.1.1-.3S105.6,1.76,105.5,1.76Z"/><path d="M136.4.26l-.3.2a1.6,1.6,0,0,1-1.1,1,8.42,8.42,0,0,1-2.6.3H112.6c-1.8,0-2.7-.4-2.7-1.1a.29.29,0,0,0-.3-.3.3.3,0,0,0-.3.3h0a38,38,0,0,1-.2,4.4c-.2,2-.3,3.5-.5,4.4h.6c.4-2.6,1-4.4,2-5.4a6.23,6.23,0,0,1,4.6-1.5l3.7.2a2.09,2.09,0,0,1,1.5.7,5.81,5.81,0,0,1,.4,2.3V29a6.26,6.26,0,0,1-.4,2.3,1.78,1.78,0,0,1-1.4.9,13.05,13.05,0,0,1-3.3.3c-.1,0-.1.1-.1.3s0,.3.1.3h12.8c.1,0,.1-.1.1-.3s0-.3-.1-.3a13.05,13.05,0,0,1-3.3-.3,1.8,1.8,0,0,1-1.4-.9,6.39,6.39,0,0,1-.3-2.3V5.86a4.33,4.33,0,0,1,.4-2.3,1.82,1.82,0,0,1,1.4-.8l3.6-.2a7.6,7.6,0,0,1,3.7.7,3.58,3.58,0,0,1,1.9,2.1,13.52,13.52,0,0,1,.5,4.1h.6c0-1.2.1-2.8.2-4.7s.2-3.4.3-4.3S136.6.26,136.4.26Z"/><path d="M148.4,3.66a1.91,1.91,0,0,1,1.3-1,10.15,10.15,0,0,1,2.9-.3.37.37,0,0,0,.1-.3.37.37,0,0,0-.1-.3H140.9c-.1,0-.2.1-.2.3s.1.3.2.3a11.28,11.28,0,0,1,2.9.2,1.78,1.78,0,0,1,1.2,1,4.16,4.16,0,0,1,.4,2.2V29a4.66,4.66,0,0,1-.4,2.3,1.39,1.39,0,0,1-1.2.9,10.88,10.88,0,0,1-2.9.3c-.1,0-.2.1-.2.3s.1.3.2.3h11.7a.48.48,0,0,0,0-.6,9.81,9.81,0,0,1-2.9-.3,1.61,1.61,0,0,1-1.3-.9,6.39,6.39,0,0,1-.3-2.3V5.86A6.3,6.3,0,0,1,148.4,3.66Z"/><path d="M190.1,1.76h-8.7c-.1,0-.1.1-.1.3s0,.3.1.3a3.5,3.5,0,0,1,2.9,1,6.37,6.37,0,0,1,.8,3.6V29L165.3,4.36a9.16,9.16,0,0,1-1.2-1.7,1.77,1.77,0,0,0-.6-.8h-6.2c-.1,0-.1.1-.1.3s0,.3.1.3A5.26,5.26,0,0,1,160.9,4V28c0,1.7-.2,2.9-.8,3.6a3.52,3.52,0,0,1-2.9,1c-1.4,0-.1.1-.1.3s0,.3.1.3h8.7c.1,0,.1-.1.1-.3s0-.3-.1-.3a3.81,3.81,0,0,1-3-1A5.58,5.58,0,0,1,162,28V4.86l.9,1,22.7,27.9h.6V7a6.45,6.45,0,0,1,.8-3.6,3.88,3.88,0,0,1,3.1-1c.1,0,.1-.1.1-.3S190.2,1.76,190.1,1.76Z"/><path d="M225.1,1.76h-9.3c-.1,0-.1.1-.1.3s0,.3.1.3,2.6.3,3.2,1.1A4.88,4.88,0,0,1,220.1,7v14.4a11.66,11.66,0,0,1-2.6,8,9.1,9.1,0,0,1-7.1,2.9,9.7,9.7,0,0,1-7.7-3.2c-1.9-2.1-2.8-5.1-2.8-9V5.86a6.3,6.3,0,0,1,.3-2.2,2.2,2.2,0,0,1,1.3-1,9.47,9.47,0,0,1,2.8-.3c.1,0,.2-.1.2-.3s-.1-.3-.2-.3H192.8c-.1,0-.1.1-.1.3s0,.3.1.3a11.28,11.28,0,0,1,2.9.2,1.78,1.78,0,0,1,1.2,1,5.54,5.54,0,0,1,.4,2.2v16a12.82,12.82,0,0,0,1.5,6.3,10.61,10.61,0,0,0,4.2,4.2,13.59,13.59,0,0,0,6.5,1.5,11.07,11.07,0,0,0,8.5-3.3c2.1-2.2,3.2-5.2,3.2-9.1V7a5.42,5.42,0,0,1,.9-3.5,3.7,3.7,0,0,1,3-1.1c.1,0,.1-.1.1-.3S225.2,1.76,225.1,1.76Z"/><path d="M250.2,25.66c-.2-.1-.3,0-.3.1a10.11,10.11,0,0,1-1.8,4.6,4.32,4.32,0,0,1-3.5,1.7H240a10.52,10.52,0,0,1-2.8-.2A1.91,1.91,0,0,1,236,31a6.33,6.33,0,0,1-.3-2.2V17.26h6.4a5,5,0,0,1,3.4.9,4.17,4.17,0,0,1,1,3.1c0,.1.1.1.3.1s.3,0,.3-.1v-8.5h-.6a3.4,3.4,0,0,1-.9,2.7,5.15,5.15,0,0,1-3.2.8h-6.6V6.06a6.3,6.3,0,0,1,.3-2.2,1.39,1.39,0,0,1,1.2-.9,10.19,10.19,0,0,1,2.8-.3h3.5a4.59,4.59,0,0,1,3.6,1.5,5.87,5.87,0,0,1,1.2,4.1h.6V2.16c0-.3-.2-.4-.5-.4h-20a.41.41,0,0,0-.1.3.41.41,0,0,0,.1.3,10.45,10.45,0,0,1,2.9.2,1.7,1.7,0,0,1,1.3,1,5.86,5.86,0,0,1,.3,2.2V29a6.39,6.39,0,0,1-.3,2.3,1.51,1.51,0,0,1-1.3.9,9.74,9.74,0,0,1-2.9.3.51.51,0,0,0,0,.6h20.8l.6-.2a.77.77,0,0,0,.2-.6,47.07,47.07,0,0,1,.4-6.5C250.5,25.66,250.4,25.66,250.2,25.66Z"/><path d="M294.5.26l-.4.2c-.1.5-.5.8-1.1,1a8.13,8.13,0,0,1-2.6.3H270.6c-1.7,0-2.6-.4-2.6-1.1a.29.29,0,0,0-.3-.3.3.3,0,0,0-.3.3c0,1-.1,2.5-.3,4.4s-.3,3.5-.4,4.4h.6c.3-2.6,1-4.4,1.9-5.4a6.23,6.23,0,0,1,4.6-1.5l3.8.2a1.89,1.89,0,0,1,1.4.7,4.45,4.45,0,0,1,.4,2.3V29a4.66,4.66,0,0,1-.4,2.3,1.6,1.6,0,0,1-1.4.9,13.05,13.05,0,0,1-3.3.3c-.1,0-.1.1-.1.3s0,.3.1.3h12.9a.48.48,0,0,0,0-.6,13.09,13.09,0,0,1-3.3-.3,1.6,1.6,0,0,1-1.4-.9,4.55,4.55,0,0,1-.4-2.3V5.86a4.33,4.33,0,0,1,.4-2.3,1.82,1.82,0,0,1,1.4-.8l3.7-.2a7,7,0,0,1,3.6.7,3.58,3.58,0,0,1,1.9,2.1,11.14,11.14,0,0,1,.5,4.1h.7c0-1.2,0-2.8.1-4.7s.2-3.4.3-4.3a.2.2,0,0,0-.2-.2Z"/><path d="M324.4,3.36a15.5,15.5,0,0,0-8.4-2.2,19.11,19.11,0,0,0-8.3,1.9,15.06,15.06,0,0,0-6.7,5.5,14.62,14.62,0,0,0-2.6,8.9,17.42,17.42,0,0,0,1.9,8.1,14.71,14.71,0,0,0,5.7,5.9,15.43,15.43,0,0,0,8.3,2.2,17.64,17.64,0,0,0,8.7-2.2,17.92,17.92,0,0,0,6.5-6,15.71,15.71,0,0,0,2.4-8.4,16.75,16.75,0,0,0-2-7.8A15.52,15.52,0,0,0,324.4,3.36Zm2.6,22.8a11.57,11.57,0,0,1-4.5,4.8,12.82,12.82,0,0,1-6.4,1.7,13.63,13.63,0,0,1-7.6-2.3,14.62,14.62,0,0,1-5.1-6.1,20.24,20.24,0,0,1-1.8-8.6c0-4.1,1.1-7.4,3.2-9.8s5.2-3.6,9.1-3.6a14.47,14.47,0,0,1,7.8,2.1,12.86,12.86,0,0,1,5.1,5.7,19.22,19.22,0,0,1,1.9,8.4A16.85,16.85,0,0,1,327,26.16Z"/><path d="M393.2,1.76h-9.5c-.1,0-.2.1-.2.3s.1.3.2.3a8.36,8.36,0,0,1,3.1.4,1.29,1.29,0,0,1,.9,1.3,2.68,2.68,0,0,1-.4,1.4l-9.6,23.8-6.5-14,3.8-9.5a6,6,0,0,1,2-2.7,5.18,5.18,0,0,1,2.9-.7.37.37,0,0,0,.1-.3.37.37,0,0,0-.1-.3h-7.8c-.1,0-.1.1-.1.3s0,.3.1.3a4.24,4.24,0,0,1,1.8.3,1.1,1.1,0,0,1,.6,1.1,4.83,4.83,0,0,1-.5,1.7L370.6,14l-4-8.6a6.7,6.7,0,0,1-.8-2.3.5.5,0,0,1,.38-.6h1.42c.1,0,.1-.1.1-.3s0-.3-.1-.3h-8.1c-.1,0-.2.1-.2.3s.1.3.2.3a3.58,3.58,0,0,1,2.5.8A7.71,7.71,0,0,1,363.8,6l5.2,11.4-4.8,11.9L353.1,5.36a3.42,3.42,0,0,1-.4-1.4,1.2,1.2,0,0,1,.8-1.3,6.65,6.65,0,0,1,2.3-.3c.1,0,.2-.1.2-.3s-.1-.3-.2-.3H346c-.1,0-.2.1-.2.3s.1.3.2.3a3.58,3.58,0,0,1,2.5.8,6.49,6.49,0,0,1,1.8,2.7l12.4,27.2a.79.79,0,0,0,.6.2c.3,0,.5-.1.5-.2l5.8-14.4,6.6,14.4a.79.79,0,0,0,.6.2c.3,0,.5-.1.5-.2l11-27.3a6.85,6.85,0,0,1,2-2.7,5.18,5.18,0,0,1,2.9-.7c.1,0,.1-.1.1-.3S393.3,1.76,393.2,1.76Z"/><path d="M416.9,25.66c-.2-.1-.3,0-.3.1a9.15,9.15,0,0,1-1.9,4.6,4.09,4.09,0,0,1-3.4,1.7h-4.6a9.75,9.75,0,0,1-2.8-.2,1.91,1.91,0,0,1-1.2-.9,4.39,4.39,0,0,1-.4-2.2V17.26h6.5a5.13,5.13,0,0,1,3.4.9,4.28,4.28,0,0,1,.9,3.1c0,.1.1.1.3.1s.3,0,.3-.1V19a13.51,13.51,0,0,1-.1-2.2v-4H413a3.4,3.4,0,0,1-.9,2.7,5.15,5.15,0,0,1-3.2.8h-6.7V6.06a4.37,4.37,0,0,1,.4-2.2,1.39,1.39,0,0,1,1.2-.9,9.47,9.47,0,0,1,2.8-.3h3.5a4.53,4.53,0,0,1,3.5,1.5,6,6,0,0,1,1.5,4.1h.5V2.16c0-.3-.1-.4-.4-.4h-20c-.1,0-.1.1-.1.3s0,.3.1.3a11.28,11.28,0,0,1,2.9.2,1.78,1.78,0,0,1,1.2,1,4.16,4.16,0,0,1,.4,2.2V29a4.66,4.66,0,0,1-.4,2.3,1.39,1.39,0,0,1-1.2.9,10.11,10.11,0,0,1-2.9.3c-.1,0-.1.1-.1.3s0,.3.1.3h20.7l.7-.2c.1-.1.1-.3.1-.6a47.06,47.06,0,0,1,.5-6.5C417.2,25.66,417.1,25.66,416.9,25.66Z"/><path d="M436,15.36a10,10,0,0,0,4.2-2.8,6.92,6.92,0,0,0,1.6-4.3,6.28,6.28,0,0,0-2-4.8c-1.3-1.3-3.4-1.9-6.2-1.9l-2.7.2H422c-.1,0-.1.1-.1.3s0,.3.1.3a11.28,11.28,0,0,1,2.9.2,1.91,1.91,0,0,1,1.3,1,5.86,5.86,0,0,1,.3,2.2V29a6.39,6.39,0,0,1-.3,2.3,1.8,1.8,0,0,1-1.3.9,10.81,10.81,0,0,1-3,.3.51.51,0,0,0,0,.6h13.3a9.46,9.46,0,0,0,4.8-1.2,8.74,8.74,0,0,0,3.5-3.4,9.89,9.89,0,0,0,1.3-4.9,7.78,7.78,0,0,0-2.4-5.8A10,10,0,0,0,436,15.36Zm-6.9-9.5a7.53,7.53,0,0,1,.3-2.5,1.71,1.71,0,0,1,1-.9,6,6,0,0,1,2.1-.2c2.2,0,3.9.5,5,1.7a7,7,0,0,1,1.5,4.6,6.74,6.74,0,0,1-1.8,5c-1.2,1.3-3.1,1.9-5.7,1.9h-2.4ZM440,30.56c-1.2,1.3-3,1.9-5.5,1.9a14.94,14.94,0,0,1-3.4-.3,2.43,2.43,0,0,1-1.6-1.1,5.8,5.8,0,0,1-.4-2.1V16.46h4.1a8.71,8.71,0,0,1,6.3,2.5,8.29,8.29,0,0,1,2.4,6.2A7.73,7.73,0,0,1,440,30.56Z"/><path d="M465.4,18.66l-4.1-2.6a32,32,0,0,1-3.8-2.4,9.13,9.13,0,0,1-2.4-2.4,6.61,6.61,0,0,1-.9-3.5,6.83,6.83,0,0,1,1.4-4.2c.9-1.2,2.4-1.7,4.4-1.7a6.21,6.21,0,0,1,5,2,8.22,8.22,0,0,1,2,4.7c0,.1.1.2.3.2s.3-.1.3-.2l-.5-5.3a.89.89,0,0,0-.7-.9,15.27,15.27,0,0,0-5.7-1.2,11.23,11.23,0,0,0-4.5.9,8.31,8.31,0,0,0-3.3,2.6A7.58,7.58,0,0,0,451.6,9a8,8,0,0,0,1,3.8,10.07,10.07,0,0,0,2.4,2.6c.9.7,2.2,1.5,3.8,2.5a30,30,0,0,1,3.8,2.5,9.08,9.08,0,0,1,2.5,2.7,8.06,8.06,0,0,1,1,3.9c0,2.1-.6,3.6-1.9,4.5a6.7,6.7,0,0,1-4.4,1.5,7.49,7.49,0,0,1-6-2.6,11.68,11.68,0,0,1-2.6-6l-.3-.2c-.2.1-.3.1-.3.3h0l.8,6.5a4.17,4.17,0,0,0,.1.6l.3.4a16.94,16.94,0,0,0,3.5,1.3,12.6,12.6,0,0,0,3.4.4,12.86,12.86,0,0,0,5.5-1.1,8.21,8.21,0,0,0,3.5-3.1,7.92,7.92,0,0,0,1.1-4.3,6.45,6.45,0,0,0-1-3.8A10.49,10.49,0,0,0,465.4,18.66Z"/><path d="M481.5,3.66a2.2,2.2,0,0,1,1.3-1,10.15,10.15,0,0,1,2.9-.3c.1,0,.1-.1.1-.3s0-.3-.1-.3H474c-.1,0-.2.1-.2.3s.1.3.2.3a11.28,11.28,0,0,1,2.9.2,2.18,2.18,0,0,1,1.3,1,5.86,5.86,0,0,1,.3,2.2V29a6.39,6.39,0,0,1-.3,2.3,1.8,1.8,0,0,1-1.3.9,10.11,10.11,0,0,1-2.9.3c-.1,0-.2.1-.2.3s.1.3.2.3h11.7c.1,0,.1-.1.1-.3s0-.3-.1-.3a9.81,9.81,0,0,1-2.9-.3,1.8,1.8,0,0,1-1.3-.9,6.39,6.39,0,0,1-.3-2.3V5.86A6.3,6.3,0,0,1,481.5,3.66Z"/><path d="M517.8.26c-.2,0-.3.1-.3.2a1.76,1.76,0,0,1-1.1,1,9.11,9.11,0,0,1-2.7.3H494c-1.8,0-2.7-.4-2.7-1.1a.29.29,0,0,0-.3-.3.3.3,0,0,0-.3.3c0,1-.1,2.5-.2,4.4s-.4,3.5-.5,4.4h.6c.3-2.6,1-4.4,2-5.4a6.21,6.21,0,0,1,4.6-1.5l3.7.2c.7.1,1.2.3,1.4.7a4.45,4.45,0,0,1,.4,2.3V29a6.39,6.39,0,0,1-.3,2.3,2,2,0,0,1-1.5.9,13.05,13.05,0,0,1-3.3.3.51.51,0,0,0,0,.6h12.9c.1,0,.1-.1.1-.3s0-.3-.1-.3a13.09,13.09,0,0,1-3.3-.3,1.6,1.6,0,0,1-1.4-.9,6,6,0,0,1-.4-2.3V5.86a5.64,5.64,0,0,1,.4-2.3,2,2,0,0,1,1.5-.8l3.6-.2a7.6,7.6,0,0,1,3.7.7,3.44,3.44,0,0,1,1.8,2.1,10.59,10.59,0,0,1,.6,4.1h.6c0-1.2,0-2.8.1-4.7s.2-3.4.3-4.3S518,.26,517.8.26Z"/><path d="M543.7,25.66c-.2-.1-.3,0-.3.1a10.11,10.11,0,0,1-1.8,4.6,4.32,4.32,0,0,1-3.5,1.7h-4.6a10.52,10.52,0,0,1-2.8-.2,1.91,1.91,0,0,1-1.2-.9,6.33,6.33,0,0,1-.3-2.2V17.26h6.4a5,5,0,0,1,3.4.9,4.17,4.17,0,0,1,1,3.1c0,.1.1.1.3.1s.3,0,.3-.1v-8.5H540a3.4,3.4,0,0,1-.9,2.7,5.15,5.15,0,0,1-3.2.8h-6.6V6.06a6.3,6.3,0,0,1,.3-2.2,1.39,1.39,0,0,1,1.2-.9,10.19,10.19,0,0,1,2.8-.3H537a4.59,4.59,0,0,1,3.6,1.5,5.86,5.86,0,0,1,1.3,4.1h.6V2.16c0-.3-.2-.4-.5-.4H522a.41.41,0,0,0-.1.3.41.41,0,0,0,.1.3,10.45,10.45,0,0,1,2.9.2,1.91,1.91,0,0,1,1.3,1,5.86,5.86,0,0,1,.3,2.2V29a6.39,6.39,0,0,1-.3,2.3,1.59,1.59,0,0,1-1.3.9,9.74,9.74,0,0,1-2.9.3.51.51,0,0,0,0,.6h20.8a.7.7,0,0,0,.8-.58.81.81,0,0,0,0-.22,47.07,47.07,0,0,1,.4-6.5C544,25.66,543.9,25.66,543.7,25.66Z"/><path d="M592.5,16.76l-5.9-2.3h-.1l1.9,3.1H552v1h36.4l-1.9,3.1h.1l5.9-2.4,6.1-1.3Z"/></g></g></svg>