<?xml version="1.0" encoding="utf-8"?>
<!-- Generator: Adobe Illustrator 24.3.0, SVG Export Plug-In . SVG Version: 6.00 Build 0)  -->
<svg version="1.1" id="Layer_1" xmlns="http://www.w3.org/2000/svg" xmlns:xlink="http://www.w3.org/1999/xlink" x="0px" y="0px"
	 viewBox="0 0 598.6 33.5" style="enable-background:new 0 0 598.6 33.5;" xml:space="preserve">
<path d="M19.6,11.6c-0.8-3.7-3.6-5.5-7.3-5.5c-6.2,0-8.8,5.1-8.8,10.5c0,5.9,2.6,10.9,8.8,10.9c4.5,0,7.2-3.2,7.5-7.5h3.4
	c-0.7,6.5-4.6,10.4-11.2,10.4c-8,0-12-6-12-13.5c0-7.5,4.3-13.6,12.3-13.6c5.4,0,9.9,2.9,10.7,8.4H19.6z"/>
<path d="M45.8,3.2c8.2,0,12.4,6.5,12.4,13.6c0,7.1-4.2,13.6-12.4,13.6c-8.2,0-12.4-6.5-12.4-13.6C33.4,9.7,37.5,3.2,45.8,3.2z
	 M45.8,27.4c6.3,0,9-5.4,9-10.7c0-5.2-2.6-10.7-9-10.7c-6.3,0-9,5.4-9,10.7C36.8,22,39.5,27.4,45.8,27.4z"/>
<path d="M69.6,3.8h3.7l13.6,21H87v-21h3.3v25.9h-3.8L72.9,8.9h-0.1v20.8h-3.3V3.8z"/>
<path d="M109,6.7h-8.6V3.8h20.7v2.9h-8.6v23H109V6.7z"/>
<path d="M131.3,3.8h3.4v25.9h-3.4V3.8z"/>
<path d="M147.8,3.8h3.7l13.6,21h0.1v-21h3.3v25.9h-3.8L151.2,8.9h-0.1v20.8h-3.3V3.8z"/>
<path d="M202,20.3c0,6.6-3.7,10-10.2,10c-6.7,0-10.6-3.1-10.6-10V3.8h3.4v16.6c0,4.6,2.6,7.1,7.2,7.1c4.4,0,6.8-2.5,6.8-7.1V3.8h3.4
	V20.3z"/>
<path d="M214.8,3.8h17.9v2.9h-14.4v8.2h13.5v2.9h-13.5v9h14.6v2.9h-18V3.8z"/>
<path d="M267.4,6.7h-8.6V3.8h20.7v2.9h-8.6v23h-3.4V6.7z"/>
<path d="M300.6,3.2c8.2,0,12.4,6.5,12.4,13.6c0,7.1-4.2,13.6-12.4,13.6c-8.2,0-12.4-6.5-12.4-13.6C288.2,9.7,292.4,3.2,300.6,3.2z
	 M300.6,27.4c6.3,0,9-5.4,9-10.7c0-5.2-2.6-10.7-9-10.7c-6.3,0-9,5.4-9,10.7C291.6,22,294.3,27.4,300.6,27.4z"/>
<path d="M365.2,29.7h-3.6l-5.9-21.8h-0.1l-6,21.8h-3.6l-6.6-25.9h3.5l5.1,21.6h0.1l5.8-21.6h3.7l5.7,21.6h0.1l5.3-21.6h3.4
	L365.2,29.7z"/>
<path d="M382.7,3.8h17.9v2.9h-14.4v8.2h13.5v2.9h-13.5v9h14.6v2.9h-18V3.8z"/>
<path d="M412.1,3.8h9.4c2.2,0,5.3,0,6.9,0.9c1.7,1,3,2.8,3,5.4c0,2.8-1.4,4.8-3.8,5.8V16c3.2,0.7,4.9,3,4.9,6.2
	c0,3.8-2.8,7.4-7.9,7.4h-12.5V3.8z M415.6,14.9h6.9c3.9,0,5.5-1.4,5.5-4.1c0-3.6-2.5-4.1-5.5-4.1h-6.9V14.9z M415.6,26.8h8.6
	c3,0,4.9-1.8,4.9-4.6c0-3.4-2.7-4.3-5.6-4.3h-7.9V26.8z"/>
<path d="M459.2,11.4c-0.4-3.7-2.8-5.3-6.4-5.3c-2.9,0-5.8,1.1-5.8,4.4c0,6.4,16.6,1.9,16.6,12.1c0,5.5-5.4,7.7-10.1,7.7
	c-5.8,0-10.7-2.9-10.7-9.1h3.3c0,4.4,3.6,6.2,7.5,6.2c3.1,0,6.6-1,6.6-4.7c0-7.1-16.6-2.4-16.6-11.9c0-5.2,4.6-7.6,9.4-7.6
	c5.3,0,9.4,2.5,9.5,8.2H459.2z"/>
<path d="M475.2,3.8h3.4v25.9h-3.4V3.8z"/>
<path d="M497.6,6.7h-8.6V3.8h20.7v2.9H501v23h-3.4V6.7z"/>
<path d="M519.8,3.8h17.9v2.9h-14.4v8.2h13.5v2.9h-13.5v9h14.6v2.9h-18V3.8z"/>
<path d="M591.3,10.2c1.6,1.7,2.9,3,4.1,3.9c1.1,0.9,2.2,1.6,3.2,2v0.8c-1.2,0.6-2.3,1.3-3.4,2.2c-1.1,0.9-2.4,2.2-3.9,3.9h-1.4
	c1.1-2.4,2.3-4.2,3.5-5.5h-28.3v-1.8h28.3c-0.9-1.1-1.5-2-1.9-2.6c-0.4-0.6-0.9-1.5-1.6-2.9H591.3z"/>
</svg>
